PathFileType	4	(X/Y/Z)	 s09c0103.trc
DataRate	CameraRate	NumFrames	NumMarkers	Units	OrigDataRate	OrigDataStartFrame	OrigNumFrames
200	200	4	50	mm	200	1001	2000
Frame#	Time	racr			lacr			c7			jug			rlel			rdr			llel			ldr			s2			lic			ric			lasi			rasi			rpsi			lpsi			rgt			lgt			rth1			rth2			rth3			rth4			rlfc			rmfc			rsh1			rsh2			rsh3			rsh4			rlmal			rmmal			rcal			rtoe			rmt5			lth1			lth2			lth4			lth3			llfc			lmfc			llmal			lmmal			lcal			lmt5			lsh1			lsh2			lsh3			lsh4			ltoe			SBIKE			LBIKE			RBIKE			
		X1	Y1	Z1	X2	Y2	Z2	X3	Y3	Z3	X4	Y4	Z4	X5	Y5	Z5	X6	Y6	Z6	X7	Y7	Z7	X8	Y8	Z8	X9	Y9	Z9	X10	Y10	Z10	X11	Y11	Z11	X12	Y12	Z12	X13	Y13	Z13	X14	Y14	Z14	X15	Y15	Z15	X16	Y16	Z16	X17	Y17	Z17	X18	Y18	Z18	X19	Y19	Z19	X20	Y20	Z20	X21	Y21	Z21	X22	Y22	Z22	X23	Y23	Z23	X24	Y24	Z24	X25	Y25	Z25	X26	Y26	Z26	X27	Y27	Z27	X28	Y28	Z28	X29	Y29	Z29	X30	Y30	Z30	X31	Y31	Z31	X32	Y32	Z32	X33	Y33	Z33	X34	Y34	Z34	X35	Y35	Z35	X36	Y36	Z36	X37	Y37	Z37	X38	Y38	Z38	X39	Y39	Z39	X40	Y40	Z40	X41	Y41	Z41	X42	Y42	Z42	X43	Y43	Z43	X44	Y44	Z44	X45	Y45	Z45	X46	Y46	Z46	X47	Y47	Z47	X48	Y48	Z48	X49	Y49	Z49	X50	Y50	Z50	
1001	5.0050	476.144540	1226.037841	-53.038039	562.357621	1222.174438	-357.216405	501.854505	1275.925405	-202.414545	456.271811	1145.199690	-222.461125	464.503602	981.534853	13.116684	688.201086	882.712752	-42.824841	492.414098	997.127528	-511.804519	696.830596	875.788644	-428.742094	12.086989	1136.204844	-276.885226	148.431132	1120.313373	-419.005540	144.638929	1157.657554	-122.737300	187.185193	1067.471314	-389.356490	190.095283	1112.205687	-141.210694	33.609934	1175.187979	-218.926933	44.132478	1168.635392	-327.354321	145.911622	1058.268255	-67.756422	104.758881	974.781592	-438.698811	269.343211	1007.510230	-86.025709	356.026142	999.949585	-101.659908	425.535460	947.502997	-99.176485	363.237283	1020.979104	-129.900479	506.530597	869.773790	-130.145929	484.291625	842.652727	-228.633878	443.250497	789.933692	-93.163071	415.662506	704.459296	-98.248007	349.882989	646.344673	-89.383288	435.367467	691.428518	-130.353261	293.306067	556.539086	-80.570092	289.560873	566.669226	-157.732631	204.549132	532.209053	-111.344720	466.105757	487.931325	-131.583883	387.009447	482.958815	-61.676909	174.219594	853.102141	-432.399059	232.280188	791.376472	-425.231379	266.281726	808.259092	-421.580630	252.917195	704.802660	-409.605828	283.854023	613.087590	-391.754881	296.418038	600.110203	-293.425050	127.231843	282.268554	-404.858304	151.480269	282.750605	-334.848387	57.336306	262.376424	-365.783632	205.649025	171.877456	-427.716775	242.700474	524.666576	-415.262885	227.814141	439.903590	-406.161547	171.620672	371.254389	-408.328010	250.714771	432.110217	-375.074732	299.215576	161.218026	-362.415035	-65.186748	851.792247	-239.475846	20.909374	84.966555	-442.169977	21.127427	84.205787	-43.774595	
1002	5.0100	477.222001	1226.308577	-53.379756	560.521792	1220.801119	-357.805533	501.936116	1276.071330	-203.661812	455.076379	1145.724576	-223.191144	464.908377	982.020148	13.541134	688.061692	882.764704	-43.092954	490.512970	995.283677	-511.413486	696.323707	875.595181	-428.840431	11.726131	1137.308135	-274.644609	146.720716	1121.256033	-417.302448	144.568799	1158.442330	-121.194607	186.051472	1068.315645	-388.183456	189.908490	1112.670568	-139.381292	33.638643	1176.184317	-216.997860	43.548093	1169.445840	-325.461336	145.584690	1057.223001	-66.462846	103.796073	976.063947	-437.225021	269.179862	1004.046584	-84.411216	355.660848	995.794592	-99.788974	425.095492	941.873274	-98.840260	363.251097	1017.104245	-127.934412	504.991230	864.064770	-130.296559	482.123979	837.193769	-227.855156	442.858712	782.544386	-92.370311	416.958820	696.434713	-97.883316	352.243347	636.997945	-89.141622	436.725864	683.673388	-130.073551	297.911649	546.340315	-80.350151	293.811427	556.718518	-157.971824	209.520654	518.220298	-111.576755	473.239578	486.294408	-131.294604	394.555347	477.469854	-61.315513	175.450841	854.892279	-430.698591	234.425935	794.140838	-423.467080	268.113251	811.366612	-419.818619	256.183361	707.781117	-408.253990	288.360486	615.845102	-390.747018	299.802251	603.314227	-291.887934	121.469423	289.874694	-404.407586	145.966026	289.639489	-334.269280	51.199625	271.710312	-365.028065	196.503910	178.522248	-428.513624	244.559643	528.565159	-414.465653	226.952290	444.241558	-405.394625	168.669750	377.410513	-407.748623	249.447333	435.500401	-373.751228	290.396453	164.426728	-362.515145	-65.146540	851.799295	-239.345015	20.898287	85.007472	-442.149663	21.121284	84.179564	-43.772522	
1003	5.0150	478.392577	1226.774408	-53.869120	558.848689	1220.577029	-359.499717	501.945079	1276.346687	-205.137717	454.352907	1146.171600	-223.996257	465.288779	982.624382	13.788838	688.117572	883.456914	-43.287617	488.632395	993.142023	-510.831856	695.780369	875.448820	-429.044531	11.286986	1138.368524	-272.262785	144.950858	1122.094460	-415.552614	144.564557	1159.038735	-119.581525	184.877558	1068.930282	-386.919822	189.640175	1112.836899	-137.459350	33.598970	1176.765800	-215.010256	42.809271	1170.051396	-323.441765	145.135475	1055.543876	-65.282564	103.021811	977.270990	-435.857960	268.638619	999.565458	-83.345648	355.331076	990.694796	-98.138605	424.347014	935.752598	-97.909749	363.335274	1012.392639	-125.798242	502.110088	856.798131	-128.846953	480.270638	830.653011	-226.984593	442.100846	774.581837	-91.757256	418.340908	687.695015	-97.547442	354.611124	627.226465	-88.664518	437.717112	675.967418	-129.864848	302.722404	535.323471	-80.181167	298.177210	545.964430	-158.034992	214.761160	503.582339	-111.816466	479.997925	483.653743	-130.749606	401.702729	471.142746	-60.934418	177.225806	856.936931	-429.311624	237.113308	797.215643	-421.661376	270.433976	814.921558	-417.690119	260.154272	711.027972	-407.070953	293.308619	618.740168	-389.886851	303.519156	606.416310	-291.278579	116.133138	297.938153	-404.084494	140.808227	297.027350	-333.816308	45.513064	281.543414	-364.413180	188.205828	184.934321	-428.485800	246.603609	532.731287	-413.896048	226.456792	449.029923	-404.946608	165.968637	384.036852	-407.317730	248.436657	439.525998	-373.091276	281.920625	168.094237	-362.424143	-65.104654	851.808591	-239.185778	20.888764	85.038360	-442.144188	21.086707	84.180150	-43.752475	
1004	5.0200	479.711624	1227.359689	-54.705220	557.082853	1219.977324	-361.586660	502.124864	1276.162287	-207.230666	453.719480	1146.125367	-224.902632	465.712771	983.476569	13.807018	687.890624	883.413953	-43.587962	486.759049	991.008319	-510.177429	695.200648	875.296632	-429.312689	10.818045	1139.097611	-269.725354	143.259149	1122.746916	-413.826594	144.534734	1159.284077	-117.867786	183.782597	1069.482595	-385.651519	189.483578	1112.598262	-135.682475	34.240161	1177.029178	-213.731236	42.027792	1170.603809	-321.177262	144.533131	1053.353515	-64.144619	102.463368	978.434805	-434.614074	268.485445	995.214362	-80.908797	354.177101	984.923964	-95.725826	423.084460	928.252436	-96.797271	363.301036	1006.923408	-123.397378	499.163956	848.985930	-127.367222	478.564809	823.562746	-226.621479	441.101251	766.033114	-91.399352	419.253364	678.859137	-97.193699	356.875162	616.984076	-88.178797	438.655954	667.568598	-129.593995	307.661747	523.937187	-80.120422	302.525336	534.966613	-157.997486	220.275215	488.605715	-112.128971	486.301471	480.107782	-130.483807	408.606374	464.263348	-60.552362	179.480351	859.218868	-428.188202	240.321856	800.519338	-419.919888	273.204393	818.758224	-415.283023	264.688799	714.563061	-405.994776	298.546514	621.642116	-389.236427	307.488534	609.476907	-290.852614	111.078384	306.405949	-404.116494	136.112145	304.868886	-333.497121	40.358871	291.834031	-363.975611	180.528813	191.528316	-428.109336	248.893137	537.116432	-413.464455	226.185667	454.231309	-404.699563	163.654905	390.992569	-406.982785	247.747279	443.943280	-372.614925	273.831367	172.413767	-362.265075	-65.054753	851.795107	-238.987213	20.875306	85.050391	-442.128280	21.106392	84.133200	-43.759064	
